<svg width="76" height="76" viewBox="0 0 76 76" fill="none" xmlns="http://www.w3.org/2000/svg">
<path d="M36.9393 55.0607C37.5251 55.6465 38.4749 55.6465 39.0607 55.0607L48.6066 45.5147C49.1924 44.929 49.1924 43.9792 48.6066 43.3934C48.0208 42.8076 47.0711 42.8076 46.4853 43.3934L38 51.8787L29.5147 43.3934C28.9289 42.8076 27.9792 42.8076 27.3934 43.3934C26.8076 43.9792 26.8076 44.929 27.3934 45.5147L36.9393 55.0607ZM36.5 17L36.5 54L39.5 54L39.5 17L36.5 17Z" fill="#D9D9D9"/>
<mask id="path-2-inside-1_121_572" fill="white">
<path d="M38 3.05176e-05C45.5157 3.06072e-05 52.8626 2.22869 59.1117 6.40419C65.3607 10.5797 70.2313 16.5145 73.1074 23.4581C75.9836 30.4017 76.7361 38.0422 75.2698 45.4135C73.8036 52.7847 70.1845 59.5557 64.8701 64.8701C59.5557 70.1845 52.7847 73.8036 45.4134 75.2699C38.0422 76.7361 30.4016 75.9836 23.458 73.1075C16.5144 70.2313 10.5796 65.3608 6.40415 59.1117C2.22866 52.8626 -1.79247e-07 45.5157 0 38H2.0449C2.0449 45.1113 4.15363 52.0628 8.10443 57.9756C12.0552 63.8884 17.6706 68.4968 24.2406 71.2182C30.8105 73.9396 38.0399 74.6516 45.0145 73.2643C51.9891 71.8769 58.3957 68.4525 63.4241 63.4241C68.4525 58.3957 71.8769 51.9891 73.2642 45.0145C74.6516 38.0399 73.9395 30.8105 71.2182 24.2406C68.4968 17.6707 63.8884 12.0553 57.9756 8.10446C52.0628 4.15366 45.1112 2.04493 38 2.04493V3.05176e-05Z"/>
</mask>
<path d="M38 3.05176e-05C45.5157 3.06072e-05 52.8626 2.22869 59.1117 6.40419C65.3607 10.5797 70.2313 16.5145 73.1074 23.4581C75.9836 30.4017 76.7361 38.0422 75.2698 45.4135C73.8036 52.7847 70.1845 59.5557 64.8701 64.8701C59.5557 70.1845 52.7847 73.8036 45.4134 75.2699C38.0422 76.7361 30.4016 75.9836 23.458 73.1075C16.5144 70.2313 10.5796 65.3608 6.40415 59.1117C2.22866 52.8626 -1.79247e-07 45.5157 0 38H2.0449C2.0449 45.1113 4.15363 52.0628 8.10443 57.9756C12.0552 63.8884 17.6706 68.4968 24.2406 71.2182C30.8105 73.9396 38.0399 74.6516 45.0145 73.2643C51.9891 71.8769 58.3957 68.4525 63.4241 63.4241C68.4525 58.3957 71.8769 51.9891 73.2642 45.0145C74.6516 38.0399 73.9395 30.8105 71.2182 24.2406C68.4968 17.6707 63.8884 12.0553 57.9756 8.10446C52.0628 4.15366 45.1112 2.04493 38 2.04493V3.05176e-05Z" stroke="#67C22F" stroke-width="4" mask="url(#path-2-inside-1_121_572)"/>
</svg>
