<svg width="54" height="54" viewBox="0 0 54 54" fill="none" xmlns="http://www.w3.org/2000/svg">
<path d="M27 5.39999C27.5371 5.39999 28.0522 5.61334 28.4319 5.9931C28.8117 6.37286 29.025 6.88793 29.025 7.42499V46.575C29.025 47.1121 28.8117 47.6271 28.4319 48.0069C28.0522 48.3867 27.5371 48.6 27 48.6C26.463 48.6 25.9479 48.3867 25.5681 48.0069C25.1884 47.6271 24.975 47.1121 24.975 46.575V7.42499C24.975 6.88793 25.1884 6.37286 25.5681 5.9931C25.9479 5.61334 26.463 5.39999 27 5.39999ZM37.125 13.5C37.6621 13.5 38.1772 13.7133 38.5569 14.0931C38.9367 14.4729 39.15 14.9879 39.15 15.525V38.475C39.15 39.0121 38.9367 39.5271 38.5569 39.9069C38.1772 40.2866 37.6621 40.5 37.125 40.5C36.588 40.5 36.0729 40.2866 35.6931 39.9069C35.3134 39.5271 35.1 39.0121 35.1 38.475V15.525C35.1 14.9879 35.3134 14.4729 35.6931 14.0931C36.0729 13.7133 36.588 13.5 37.125 13.5ZM18.9 15.525C18.9 14.9879 18.6867 14.4729 18.3069 14.0931C17.9272 13.7133 17.4121 13.5 16.875 13.5C16.338 13.5 15.8229 13.7133 15.4431 14.0931C15.0634 14.4729 14.85 14.9879 14.85 15.525V38.475C14.85 39.0121 15.0634 39.5271 15.4431 39.9069C15.8229 40.2866 16.338 40.5 16.875 40.5C17.4121 40.5 17.9272 40.2866 18.3069 39.9069C18.6867 39.5271 18.9 39.0121 18.9 38.475V15.525ZM46.575 21.6C47.1121 21.6 47.6272 21.8133 48.0069 22.1931C48.3867 22.5729 48.6 23.0879 48.6 23.625V30.375C48.6 30.9121 48.3867 31.4271 48.0069 31.8069C47.6272 32.1866 47.1121 32.4 46.575 32.4C46.038 32.4 45.5229 32.1866 45.1431 31.8069C44.7634 31.4271 44.55 30.9121 44.55 30.375V23.625C44.55 23.0879 44.7634 22.5729 45.1431 22.1931C45.5229 21.8133 46.038 21.6 46.575 21.6ZM9.45002 23.625C9.45002 23.0879 9.23668 22.5729 8.85692 22.1931C8.47715 21.8133 7.96209 21.6 7.42502 21.6C6.88796 21.6 6.37289 21.8133 5.99313 22.1931C5.61337 22.5729 5.40002 23.0879 5.40002 23.625V30.375C5.40002 30.9121 5.61337 31.4271 5.99313 31.8069C6.37289 32.1866 6.88796 32.4 7.42502 32.4C7.96209 32.4 8.47715 32.1866 8.85692 31.8069C9.23668 31.4271 9.45002 30.9121 9.45002 30.375V23.625Z" fill="#67C22F"/>
</svg>
